<?xml version="1.0" encoding="UTF-8" standalone="no"?>
<!-- Created with Inkscape (http://www.inkscape.org/) -->

<svg
   width="157.6118mm"
   height="51.539631mm"
   viewBox="0 0 157.6118 51.539631"
   version="1.1"
   id="svg5"
   xml:space="preserve"
   xmlns:inkscape="http://www.inkscape.org/namespaces/inkscape"
   xmlns:sodipodi="http://sodipodi.sourceforge.net/DTD/sodipodi-0.dtd"
   xmlns="http://www.w3.org/2000/svg"
   xmlns:svg="http://www.w3.org/2000/svg"><sodipodi:namedview
     id="namedview7"
     pagecolor="#ffffff"
     bordercolor="#000000"
     borderopacity="0.25"
     inkscape:showpageshadow="2"
     inkscape:pageopacity="0.0"
     inkscape:pagecheckerboard="0"
     inkscape:deskcolor="#d1d1d1"
     inkscape:document-units="mm"
     showgrid="false" /><defs
     id="defs2" /><g
     inkscape:label="Camada 1"
     inkscape:groupmode="layer"
     id="layer1"
     transform="translate(-9.1941021,-7.5451897)"><g
       style="fill:none"
       id="g18"
       transform="matrix(0.26458333,0,0,0.26458333,3.9244355,103.95944)"><g
         id="g654"
         transform="translate(20.486571,8.1243884)"><path
           fill-rule="evenodd"
           clip-rule="evenodd"
           d="m 92.580892,-186.22352 c -75.127622,0 -93.15061193,-18.02309 -93.15061193,-93.1506 0,-75.12755 18.02298993,-93.15059 93.15061193,-93.15059 75.127508,0 93.150598,18.02304 93.150598,93.15059 0,75.12751 -18.02309,93.1506 -93.150598,93.1506 z m -26.37042,-140.20023 -29.216432,66.40063 c -1.32802,3.2256 -2.46632,7.39875 -2.46632,11.00367 0,16.50526 11.572722,28.07818 28.077822,28.07818 5.40894,0 9.90036,-1.42106 14.46732,-2.86593 l 0.004,-0.002 c 4.72221,-1.49455 9.52516,-3.01394 15.5044,-3.01394 6.04909,0 10.737158,1.50593 15.368288,2.99427 l 0.002,5.2e-4 c 4.51883,1.45212 8.98385,2.88664 14.60497,2.88664 16.50526,0 28.07818,-11.57293 28.07818,-28.07818 0,-3.60493 -1.1385,-7.77808 -2.4659,-11.00368 l -29.21617,-66.40063 c -4.93336,-11.19323 -14.41868,-17.26412 -26.370928,-17.26412 -11.95226,0 -21.4381,6.07089 -26.37042,17.26412 z m -2.46642,76.83557 28.83684,-65.26233 28.457498,65.26233 c -8.15792,-3.98426 -18.40241,-5.88143 -28.457498,-5.88143 -10.43442,0 -20.29959,1.89717 -28.83684,5.88143 z m 276.243288,9.38854 c 1.15506,-0.8663 2.11762,-1.7326 2.88767,-2.5989 v 5.34219 h 17.90354 v -93.84937 h -17.90354 v 34.79654 c -0.77005,-0.8663 -1.73261,-1.7326 -2.88767,-2.5989 -1.05882,-0.8663 -2.31014,-1.58822 -3.75397,-2.16575 -1.34758,-0.67379 -2.88767,-1.20319 -4.62027,-1.58822 -1.63635,-0.38502 -3.27269,-0.57753 -4.90904,-0.57753 -4.71652,0 -8.90364,0.91443 -12.56136,2.74328 -3.65771,1.73261 -6.73789,4.139 -9.24054,7.21918 -2.50265,3.08018 -4.42776,6.64163 -5.77534,10.68437 -1.25132,4.04274 -1.87698,8.42237 -1.87698,13.13889 0,4.62027 0.62566,8.9999 1.87698,13.1389 1.34758,4.04273 3.27269,7.60419 5.77534,10.68437 2.50265,3.08018 5.58283,5.48657 9.24054,7.21917 3.65772,1.7326 7.84484,2.5989 12.56136,2.5989 1.63635,0 3.27269,-0.19251 4.90904,-0.57753 1.7326,-0.38502 3.27269,-0.8663 4.62027,-1.44384 1.44383,-0.67378 2.69515,-1.3957 3.75397,-2.16575 z m -2.02137,-45.48078 c 2.21388,1.34758 3.85022,3.12831 4.90904,5.34219 v 21.22436 c -1.05882,2.21388 -2.69516,4.04274 -4.90904,5.48657 -2.21388,1.34758 -4.6684,2.02137 -7.36356,2.02137 -2.40639,0 -4.57214,-0.43315 -6.49725,-1.29945 -1.92511,-0.96256 -3.56146,-2.21388 -4.90904,-3.75397 -1.25132,-1.63634 -2.26201,-3.56146 -3.03205,-5.77534 -0.67379,-2.21387 -1.01068,-4.62027 -1.01068,-7.21917 0,-2.5989 0.33689,-5.00529 1.01068,-7.21917 0.77004,-2.21388 1.78073,-4.09086 3.03205,-5.63095 1.34758,-1.63635 2.98393,-2.9358 4.90904,-3.89836 1.92511,-0.96255 4.09086,-1.44383 6.49725,-1.44383 2.69516,0 5.14968,0.72192 7.36356,2.16575 z m -66.09812,44.75887 v 3.4652 h 17.18163 v -41.14928 c 0,-7.79671 -2.35826,-13.86081 -7.07479,-18.19231 -4.71652,-4.42776 -11.40629,-6.64164 -20.0693,-6.64164 -3.65771,0 -7.02666,0.52941 -10.10684,1.58822 -3.08018,1.05881 -5.82346,2.55077 -8.22985,4.47588 -2.31014,1.82886 -4.23525,3.99461 -5.77534,6.49726 -1.44383,2.50264 -2.40639,5.1978 -2.88767,8.08547 h 17.03725 c 0.67379,-1.92511 1.78073,-3.41707 3.32082,-4.47589 1.54009,-1.05881 3.60958,-1.58821 6.20848,-1.58821 3.56146,0 6.16036,0.96255 7.79671,2.88766 1.7326,1.92512 2.5989,4.28338 2.5989,7.07479 v 4.76466 c -1.34758,-0.96256 -3.41707,-1.82886 -6.20849,-2.59891 -2.79141,-0.77004 -5.58282,-1.15506 -8.37424,-1.15506 -3.56145,0 -6.88227,0.5294 -9.96245,1.58821 -2.98393,0.96256 -5.63096,2.35827 -7.94109,4.18712 -2.21388,1.73261 -3.94648,3.89836 -5.19781,6.49726 -1.25132,2.50265 -1.87698,5.29406 -1.87698,8.37424 0,3.36894 0.62566,6.35287 1.87698,8.95177 1.25133,2.5989 2.9358,4.81278 5.05343,6.64164 2.21387,1.7326 4.76465,3.08018 7.65232,4.04274 2.88767,0.8663 5.96785,1.29945 9.24054,1.29945 3.56146,0 6.78602,-0.48128 9.67369,-1.44384 2.98392,-1.05881 5.00529,-2.11762 6.0641,-3.17643 z m -1.58822,-21.07999 c 0.77005,0.67379 1.29945,1.44384 1.58822,2.31014 v 4.76465 c -0.28877,0.8663 -0.81817,1.63635 -1.58822,2.31014 -0.77004,0.67379 -1.68447,1.25132 -2.74328,1.7326 -1.05881,0.48128 -2.21388,0.8663 -3.4652,1.15507 -1.25133,0.19251 -2.50265,0.28876 -3.75397,0.28876 -1.44384,0 -2.83954,-0.14438 -4.18712,-0.43315 -1.34758,-0.28876 -2.5989,-0.77004 -3.75397,-1.44383 -1.05881,-0.67379 -1.92511,-1.49196 -2.5989,-2.45452 -0.57754,-0.96256 -0.8663,-2.16575 -0.8663,-3.60959 0,-1.34757 0.28876,-2.50264 0.8663,-3.4652 0.67379,-1.05881 1.54009,-1.92511 2.5989,-2.5989 1.15507,-0.67379 2.40639,-1.15507 3.75397,-1.44383 1.34758,-0.28877 2.74328,-0.43315 4.18712,-0.43315 1.25132,0 2.50264,0.14438 3.75397,0.43315 1.25132,0.19251 2.40639,0.57753 3.4652,1.15506 1.05881,0.48128 1.97324,1.05882 2.74328,1.7326 z m 162.91215,-7.65232 c 0,4.90904 -0.77004,9.43305 -2.31013,13.57205 -1.54009,4.13899 -3.70636,7.70045 -6.49778,10.68437 -2.69464,2.98392 -6.01545,5.29406 -9.96194,6.9304 -3.85022,1.63635 -8.1336,2.45452 -12.85012,2.45452 -4.71653,0 -9.04855,-0.81817 -12.99451,-2.45452 -3.85074,-1.63634 -7.17104,-3.94648 -9.96246,-6.9304 -2.69515,-2.98392 -4.81278,-6.54538 -6.35287,-10.68437 -1.54009,-4.139 -2.31013,-8.66301 -2.31013,-13.57205 0,-5.00529 0.77004,-9.5293 2.31013,-13.57204 1.54009,-4.13899 3.65772,-7.70045 6.35287,-10.68437 2.79142,-3.08018 6.11172,-5.43845 9.96246,-7.07479 3.94596,-1.63635 8.27798,-2.45452 12.99451,-2.45452 4.71652,0 8.9999,0.81817 12.85012,2.45452 3.94649,1.63634 7.2673,3.99461 9.96194,7.07479 2.79142,2.98392 4.95769,6.54538 6.49778,10.68437 1.54009,4.04274 2.31013,8.56675 2.31013,13.57204 z m -17.75916,0 c 0,-2.69515 -0.28877,-5.1978 -0.8663,-7.50794 -0.57754,-2.31013 -1.49196,-4.28337 -2.74329,-5.91972 -1.15506,-1.63634 -2.5989,-2.88767 -4.3315,-3.75397 -1.7326,-0.96255 -3.70636,-1.44383 -5.91972,-1.44383 -2.21388,0 -4.18764,0.48128 -5.91972,1.44383 -1.7326,0.8663 -3.22508,2.11763 -4.47589,3.75397 -1.15507,1.63635 -2.02137,3.60959 -2.5989,5.91972 -0.57753,2.31014 -0.86682,4.81279 -0.86682,7.50794 0,2.69516 0.28929,5.19781 0.86682,7.50794 0.57753,2.21388 1.44383,4.13899 2.5989,5.77534 1.25081,1.63634 2.74329,2.9358 4.47589,3.89835 1.73208,0.96256 3.70584,1.44384 5.91972,1.44384 2.21336,0 4.18712,-0.48128 5.91972,-1.44384 1.7326,-0.96255 3.17644,-2.26201 4.3315,-3.89835 1.25133,-1.63635 2.16575,-3.56146 2.74329,-5.77534 0.57753,-2.31013 0.8663,-4.81278 0.8663,-7.50794 z m 44.93688,-32.34189 h -17.90354 v 64.5394 h 17.90354 v -40.86051 c 0.28877,-1.44384 0.81818,-2.69516 1.58822,-3.75397 0.77005,-1.15507 1.68448,-2.11763 2.74329,-2.88767 1.05881,-0.77005 2.21388,-1.34758 3.4652,-1.7326 1.25132,-0.38502 2.55077,-0.57754 3.89835,-0.57754 3.56146,0 6.20849,1.05882 7.94109,3.17644 1.7326,2.11762 2.5989,4.86091 2.5989,8.22985 v 38.406 h 17.90355 v -42.15996 c 0,-7.12292 -1.97324,-12.85013 -5.91972,-17.18163 -3.94648,-4.42776 -9.57744,-6.64164 -16.89286,-6.64164 -3.65772,0 -7.02666,0.72192 -10.10684,2.16575 -3.08018,1.44384 -5.48657,3.17644 -7.21918,5.1978 z m 52.5385,64.5394 v -64.5394 h 17.9051 v 64.5394 z m 19.63873,-83.16484 c 0,3.08018 -1.06088,5.58283 -3.17747,7.50794 -2.11659,1.82884 -4.6213,2.74326 -7.50897,2.74326 -2.78934,0 -5.24645,-0.91442 -7.36407,-2.74326 -2.11763,-1.92511 -3.17644,-4.42776 -3.17644,-7.50794 0,-2.98408 1.05881,-5.39047 3.17644,-7.21933 2.11762,-1.92511 4.57473,-2.88766 7.36407,-2.88766 2.88767,0 5.39238,0.96255 7.50897,2.88766 2.11659,1.82886 3.17747,4.23525 3.17747,7.21933 z m 29.08369,69.30403 c -1.92511,-1.15507 -3.22405,-2.9358 -3.8968,-5.34219 h -17.76071 c 0.48127,3.27269 1.49041,6.20849 3.03257,8.80739 1.63531,2.50265 3.70532,4.6684 6.20486,6.49726 2.50472,1.7326 5.39239,3.03205 8.66301,3.89835 3.27579,0.96255 6.88279,1.44383 10.83134,1.44383 3.65875,0 7.12085,-0.48128 10.39664,-1.44383 3.27063,-0.96256 6.06514,-2.31014 8.37321,-4.04274 2.40639,-1.82885 4.28493,-4.04273 5.63043,-6.64164 1.34551,-2.5989 2.02344,-5.53469 2.02344,-8.80739 0,-4.90903 -1.44383,-8.90364 -4.3315,-11.98382 -2.88767,-3.08018 -7.1726,-5.34219 -12.84961,-6.78602 l -13.28431,-3.03205 c -2.02344,-0.48128 -3.51385,-1.10694 -4.4764,-1.87699 -0.86941,-0.8663 -1.29894,-1.92511 -1.29894,-3.17643 0,-2.02137 0.86423,-3.51333 2.59787,-4.47589 1.82679,-1.05881 3.80365,-1.58822 5.92024,-1.58822 2.98082,0 5.24748,0.62566 6.78447,1.87699 1.63531,1.15506 2.74277,2.64703 3.32237,4.47588 h 16.89131 c -0.96256,-6.16036 -3.70533,-11.02127 -8.22831,-14.58272 -4.52297,-3.56146 -10.83134,-5.34219 -18.91474,-5.34219 -3.65875,0 -7.07427,0.52941 -10.25174,1.58822 -3.07915,0.96255 -5.77534,2.35826 -8.08341,4.18712 -2.31324,1.82885 -4.14002,4.04273 -5.49071,6.64163 -1.24718,2.50265 -1.87336,5.34219 -1.87336,8.51863 0,5.48657 1.53699,9.62556 4.62131,12.41697 3.17229,2.69516 7.21917,4.62027 12.1251,5.77534 l 12.99451,2.88767 c 2.21491,0.57753 3.80365,1.29945 4.7662,2.16575 1.05571,0.77004 1.58874,1.87698 1.58874,3.32082 0,1.05881 -0.24323,2.02137 -0.7245,2.88767 -0.38296,0.77004 -0.96256,1.3957 -1.73364,1.87698 -0.76591,0.48128 -1.72846,0.8663 -2.88767,1.15507 -1.15403,0.28877 -2.40639,0.43315 -3.7519,0.43315 -2.69619,0 -5.00426,-0.57753 -6.92937,-1.7326 z"
           fill="#2c2b2a"
           id="path9"
           style="stroke-width:5.17503" /><g
           id="g198"
           transform="matrix(0.60868348,0,0,0.60868348,142.5454,-89.621492)"><path
             d="m 516.11497,-204.77189 h 21.98144 v 11.15326 h -21.98144 v 25.30742 c -0.0443,1.81607 0.20477,3.62739 0.73772,5.36407 0.40352,1.28915 1.12105,2.45784 2.08811,3.401 0.93209,0.87797 2.06565,1.51344 3.30097,1.85054 1.23433,0.32942 2.50314,0.50911 3.77908,0.53566 l 0.54718,0.002 c 1.15034,0 2.33819,0 3.56355,-0.16255 l 0.72661,-0.0899 v 0 l 1.40881,-0.15945 c 0.46134,-0.0542 0.91547,-0.11323 1.3656,-0.18825 l 0.6596,-0.10473 v 0 l 1.24176,-0.18426 c 0.40032,-0.0606 0.78943,-0.12363 1.17454,-0.19865 l 0.91787,-0.18385 c 0.14564,-0.0301 0.2877,-0.06 0.42628,-0.0897 l 0.79074,-0.17656 c 0.12515,-0.0292 0.24706,-0.0584 0.36585,-0.0876 l 1.47543,10.39054 c -1.18758,0.67006 -2.44559,1.20681 -3.7511,1.60047 -1.47913,0.46755 -2.98687,0.83926 -4.51382,1.11283 -1.60047,0.30009 -3.26346,0.52515 -5.00147,0.6877 -1.73801,0.16255 -3.4135,0.23757 -5.08899,0.23757 -2.96491,0.0428 -5.91822,-0.37914 -8.75256,-1.25037 -2.52561,-0.78653 -4.83025,-2.15732 -6.72697,-4.00117 -1.95389,-1.91297 -3.42774,-4.26085 -4.30126,-6.85201 -1.08681,-3.22011 -1.60304,-6.60525 -1.52545,-10.00293 v -26.75782 H 487.5441 v -11.15326 h 13.44144 v -14.41673 h 15.12943 z m 53.87829,29.27107 v 29.60868 h -15.29198 v -79.23572 h 26.62029 c 4.02538,-0.05 8.03744,0.47206 11.916,1.55046 3.31141,0.91429 6.415,2.45972 9.14017,4.55133 2.50622,1.99755 4.49237,4.5714 5.7892,7.5022 1.42364,3.25788 2.12328,6.78592 2.0506,10.34053 0.0333,2.58214 -0.30781,5.15548 -1.0128,7.63974 -1.20833,4.3189 -3.81079,8.11708 -7.40217,10.80316 -1.82794,1.38384 -3.80803,2.55427 -5.90172,3.48852 l 17.02998,32.69708 v 0.71271 h -16.44231 l -14.90437,-29.65869 z m 0.0125,-12.42864 h 11.31581 c 2.12687,0.0414 4.24405,-0.29736 6.25183,-1.00029 1.67975,-0.59643 3.18697,-1.59695 4.38879,-2.91336 0.93629,-1.04355 1.65472,-2.2636 2.11312,-3.58855 0.44806,-1.35839 0.69151,-2.77486 0.72325,-4.20291 l 0.002,-0.53598 c 0.0373,-1.90213 -0.28514,-3.79419 -0.95028,-5.57663 -0.59766,-1.55279 -1.57835,-2.92919 -2.85083,-4.00117 -1.22452,-0.98813 -2.63048,-1.72722 -4.13872,-2.17564 -1.61704,-0.47117 -3.2883,-0.72662 -4.97042,-0.76044 l -11.88451,-0.002 z m 67.84487,42.03732 h -15.26697 v -79.23572 h 27.09544 c 3.98026,-0.0565 7.94014,0.57813 11.70343,1.87555 3.28689,1.13443 6.31983,2.90152 8.92761,5.20153 2.42633,2.25389 4.34448,4.99897 5.62665,8.05235 1.27321,3.08772 1.94721,6.38737 1.98831,9.723 l -2.2e-4,0.66755 c 0.0351,3.38732 -0.64224,6.7442 -1.98809,9.85289 -1.29445,2.96688 -3.21364,5.61963 -5.62665,7.77727 -2.617,2.3009 -5.66408,4.06031 -8.96512,5.17652 -3.76631,1.28282 -7.72508,1.90878 -11.70343,1.85054 h -11.80346 z m 0,-41.46215 h 11.80346 c 1.93408,0.0389 3.85744,-0.29648 5.66416,-0.98779 1.51462,-0.59435 2.88663,-1.50192 4.02618,-2.66328 1.04602,-1.12047 1.85041,-2.44411 2.36319,-3.88864 0.53025,-1.47612 0.80099,-3.03288 0.80024,-4.60135 0.0115,-1.75308 -0.25865,-3.49664 -0.80024,-5.16401 -0.49459,-1.54622 -1.29863,-2.97562 -2.36319,-4.20123 -1.12443,-1.21914 -2.4974,-2.18278 -4.02618,-2.82583 -1.79788,-0.72734 -3.72519,-1.08046 -5.66416,-1.0378 h -11.80346 z m 103.04269,27.42053 c -1.40016,3.08965 -3.40717,5.86629 -5.90173,8.16489 -2.5654,2.29983 -5.5616,4.0678 -8.81508,5.20153 -3.40151,1.16516 -6.96619,1.77705 -10.55823,1.81393 l -0.77009,-9e-4 c -3.06297,0.0363 -6.11419,-0.38514 -9.05265,-1.25037 -2.68686,-0.80192 -5.22203,-2.04416 -7.5022,-3.67607 -2.06301,-1.51671 -3.88784,-3.33312 -5.41408,-5.38908 -1.60682,-2.15356 -2.9501,-4.4917 -4.00117,-6.96454 -1.09578,-2.7002 -1.90463,-5.50812 -2.41321,-8.37746 -0.57798,-3.19747 -0.86257,-6.44107 -0.851,-9.69034 v -10.66562 c -0.006,-3.05462 0.24876,-6.10422 0.76347,-9.11517 0.42348,-2.44377 1.07658,-4.84142 1.95023,-7.16116 l 0.33794,-0.86619 c 1.10534,-2.90205 2.64868,-5.61766 4.57634,-8.05236 1.82595,-2.30298 3.98833,-4.31782 6.41438,-5.97675 2.17959,-1.40661 4.55629,-2.48118 7.05207,-3.18844 2.43567,-0.69394 4.95043,-1.06675 7.4805,-1.10981 l 0.75941,-0.003 c 3.95043,-0.0676 7.88205,0.55872 11.6159,1.85054 6.53995,2.24711 11.7762,7.23227 14.34171,13.654 1.43849,3.56155 2.31991,7.3234 2.61326,11.15327 h -15.22946 c -0.0898,-2.11941 -0.44261,-4.21944 -1.05031,-6.25184 -0.49058,-1.63992 -1.31662,-3.15999 -2.42571,-4.4638 -1.12478,-1.185 -2.51256,-2.08876 -4.05118,-2.63828 -1.86572,-0.63973 -3.82986,-0.94451 -5.8017,-0.90026 -1.12841,-0.004 -2.25329,0.12611 -3.35099,0.38761 -0.99892,0.24375 -1.9586,0.62678 -2.85083,1.13784 -1.52963,0.93585 -2.81525,2.22146 -3.7511,3.7511 -1.09465,1.75274 -1.93653,3.65117 -2.50073,5.63915 -0.49368,1.81076 -0.83662,3.65928 -1.0253,5.52662 -0.22842,2.15963 -0.33695,4.33026 -0.3251,6.5019 v 10.76566 c -0.0248,2.83011 0.14646,5.65854 0.51265,8.46498 0.27995,2.22195 0.81704,4.40388 1.60047,6.5019 0.47078,1.19453 1.08371,2.32802 1.82554,3.37599 0.66726,0.95989 1.48658,1.80455 2.42571,2.50073 0.98848,0.73105 2.10326,1.2736 3.28846,1.60047 1.31909,0.36415 2.68285,0.54093 4.05119,0.52516 1.82471,0.0217 3.64204,-0.23554 5.38908,-0.76273 1.531,-0.47149 2.93096,-1.29349 4.08869,-2.4007 1.18847,-1.18061 2.09836,-2.61166 2.66328,-4.18873 0.72312,-1.97624 1.14464,-4.05007 1.25037,-6.1518 h 15.29198 c -0.22066,3.70797 -1.1191,7.3441 -2.65078,10.72814 z"
             fill="#398ccb"
             id="path194" /><path
             d="m 90.383412,-231.47415 32.402618,18.70677 v 37.4346 l -32.402618,18.70677 -14.38431,-8.31857 -34.97756,20.19321 -34.7680596,-20.07741 -14.183251,8.20277 -32.4026114,-18.73835 v -37.40302 l 32.4026114,-18.70677 32.4026106,18.70677 v 37.40302 l -9.80289,5.66887 26.35159,15.21702 26.56109,-15.33281 -9.60182,-5.55308 v -37.40302 z m -23.98087,28.45492 v 22.83343 l 19.77001,11.41144 v -22.83342 z m 47.961758,-0.0316 -19.770018,11.41145 v 22.865 l 19.770018,-11.44303 z m -146.274949,0 v 22.83342 l 19.770015,11.41145 v -22.83342 z m 47.961761,0 -19.7700156,11.41145 v 22.83342 l 19.7700156,-11.41142 z m 74.3323,-18.67516 -19.77001,11.41145 19.77001,11.42197 19.770018,-11.42197 z m -98.3131806,-0.0316 -19.7700154,11.44302 19.7700154,11.3904 19.7700106,-11.3904 z m 16.117091,-58.02575 v 9.71658 l -29.9813674,17.31718 v 29.27604 l -8.421731,4.86356 v -39.00315 z m 32.4026096,-29.48658 32.42366,18.70677 v 10.28714 l 39.245268,22.66288 v 38.76102 l -8.42173,-4.86355 v -29.03392 l -30.823538,-17.79933 v 17.3993 l -32.40261,18.70677 -32.4026096,-18.70677 v -37.41354 z m -23.95983,28.42334 v 22.83342 l 19.74896,11.41144 v -22.82289 z m 47.94071,0 -19.74896,11.42197 v 22.81237 l 19.74896,-11.40092 z m -23.98088,-18.69624 -19.74896,11.41144 19.74896,11.41145 19.77002,-11.41145 z"
             fill="#398ccb"
             id="path196"
             style="stroke-width:0.841926" /></g></g></g></g></svg>
